<?xml version="1.0" standalone="no"?>
<!DOCTYPE svg PUBLIC "-//W3C//DTD SVG 20010904//EN"
 "http://www.w3.org/TR/2001/REC-SVG-20010904/DTD/svg10.dtd">
<svg version="1.0" xmlns="http://www.w3.org/2000/svg"
 width="265.000000pt" height="144.000000pt" viewBox="0 0 265.000000 144.000000"
 preserveAspectRatio="xMidYMid meet">

<g transform="translate(0.000000,144.000000) scale(0.100000,-0.100000)"
fill="#000000" stroke="none">
<path d="M60 930 l0 -460 845 0 845 0 0 460 0 460 -845 0 -845 0 0 -460z
m1640 0 l0 -410 -795 0 -795 0 0 410 0 410 795 0 795 0 0 -410z"/>
<path d="M1790 1165 l0 -225 410 0 410 0 0 225 0 225 -410 0 -410 0 0 -225z
m770 0 l0 -175 -360 0 -360 0 0 175 0 175 360 0 360 0 0 -175z"/>
<path d="M1790 695 l0 -225 410 0 410 0 0 225 0 225 -410 0 -410 0 0 -225z
m770 0 l0 -175 -360 0 -360 0 0 175 0 175 360 0 360 0 0 -175z"/>
<path d="M1790 250 l0 -200 410 0 410 0 0 200 0 200 -410 0 -410 0 0 -200z
m770 0 l0 -150 -360 0 -360 0 0 150 0 150 360 0 360 0 0 -150z"/>
<path d="M60 245 l0 -195 420 0 420 0 0 195 0 195 -420 0 -420 0 0 -195z m790
0 l0 -145 -370 0 -370 0 0 145 0 145 370 0 370 0 0 -145z"/>
<path d="M930 245 l0 -195 410 0 410 0 0 195 0 195 -410 0 -410 0 0 -195z
m770 0 l0 -145 -360 0 -360 0 0 145 0 145 360 0 360 0 0 -145z"/>
</g>
</svg>
